<?xml version="1.0" encoding="UTF-8" standalone="no"?>
<!DOCTYPE svg PUBLIC "-//W3C//DTD SVG 1.1//EN"
 "http://www.w3.org/Graphics/SVG/1.1/DTD/svg11.dtd">
<!-- Generated by graphviz version 14.1.1 (20251213.1925)
 -->
<!-- Title: InheritanceTree Pages: 1 -->
<svg width="512pt" height="1725pt"
 viewBox="0.00 0.00 512.00 1725.00" xmlns="http://www.w3.org/2000/svg" xmlns:xlink="http://www.w3.org/1999/xlink">
<g id="graph0" class="graph" transform="scale(1 1) rotate(0) translate(4 1720.5)">
<title>InheritanceTree</title>
<polygon fill="white" stroke="none" points="-4,4 -4,-1720.5 507.75,-1720.5 507.75,4 -4,4"/>
<text xml:space="preserve" text-anchor="middle" x="251.88" y="-7.2" font-family="Times New Roman,serif" font-size="14.00">simple_lsp &#45; Inheritance Hierarchy</text>
<!-- ECF_CLUSTER -->
<g id="node1" class="node">
<title>ECF_CLUSTER</title>
<path fill="none" stroke="black" d="M179.5,-60.5C179.5,-60.5 96,-60.5 96,-60.5 90,-60.5 84,-54.5 84,-48.5 84,-48.5 84,-36.5 84,-36.5 84,-30.5 90,-24.5 96,-24.5 96,-24.5 179.5,-24.5 179.5,-24.5 185.5,-24.5 191.5,-30.5 191.5,-36.5 191.5,-36.5 191.5,-48.5 191.5,-48.5 191.5,-54.5 185.5,-60.5 179.5,-60.5"/>
<text xml:space="preserve" text-anchor="middle" x="137.75" y="-37.45" font-family="Times New Roman,serif" font-size="14.00">ECF_CLUSTER</text>
</g>
<!-- ECF_LIBRARY -->
<g id="node2" class="node">
<title>ECF_LIBRARY</title>
<path fill="none" stroke="black" d="M178.75,-132.5C178.75,-132.5 96.75,-132.5 96.75,-132.5 90.75,-132.5 84.75,-126.5 84.75,-120.5 84.75,-120.5 84.75,-108.5 84.75,-108.5 84.75,-102.5 90.75,-96.5 96.75,-96.5 96.75,-96.5 178.75,-96.5 178.75,-96.5 184.75,-96.5 190.75,-102.5 190.75,-108.5 190.75,-108.5 190.75,-120.5 190.75,-120.5 190.75,-126.5 184.75,-132.5 178.75,-132.5"/>
<text xml:space="preserve" text-anchor="middle" x="137.75" y="-109.45" font-family="Times New Roman,serif" font-size="14.00">ECF_LIBRARY</text>
</g>
<!-- ECF_TARGET -->
<g id="node3" class="node">
<title>ECF_TARGET</title>
<path fill="none" stroke="black" d="M175.75,-204.5C175.75,-204.5 99.75,-204.5 99.75,-204.5 93.75,-204.5 87.75,-198.5 87.75,-192.5 87.75,-192.5 87.75,-180.5 87.75,-180.5 87.75,-174.5 93.75,-168.5 99.75,-168.5 99.75,-168.5 175.75,-168.5 175.75,-168.5 181.75,-168.5 187.75,-174.5 187.75,-180.5 187.75,-180.5 187.75,-192.5 187.75,-192.5 187.75,-198.5 181.75,-204.5 175.75,-204.5"/>
<text xml:space="preserve" text-anchor="middle" x="137.75" y="-181.45" font-family="Times New Roman,serif" font-size="14.00">ECF_TARGET</text>
</g>
<!-- LSP_APPLICATION -->
<g id="node4" class="node">
<title>LSP_APPLICATION</title>
<path fill="none" stroke="black" d="M192.25,-276.5C192.25,-276.5 83.25,-276.5 83.25,-276.5 77.25,-276.5 71.25,-270.5 71.25,-264.5 71.25,-264.5 71.25,-252.5 71.25,-252.5 71.25,-246.5 77.25,-240.5 83.25,-240.5 83.25,-240.5 192.25,-240.5 192.25,-240.5 198.25,-240.5 204.25,-246.5 204.25,-252.5 204.25,-252.5 204.25,-264.5 204.25,-264.5 204.25,-270.5 198.25,-276.5 192.25,-276.5"/>
<text xml:space="preserve" text-anchor="middle" x="137.75" y="-253.45" font-family="Times New Roman,serif" font-size="14.00">LSP_APPLICATION</text>
</g>
<!-- LSP_CALL_HIERARCHY_HANDLER -->
<g id="node5" class="node">
<title>LSP_CALL_HIERARCHY_HANDLER</title>
<path fill="none" stroke="black" d="M244.75,-348.5C244.75,-348.5 30.75,-348.5 30.75,-348.5 24.75,-348.5 18.75,-342.5 18.75,-336.5 18.75,-336.5 18.75,-324.5 18.75,-324.5 18.75,-318.5 24.75,-312.5 30.75,-312.5 30.75,-312.5 244.75,-312.5 244.75,-312.5 250.75,-312.5 256.75,-318.5 256.75,-324.5 256.75,-324.5 256.75,-336.5 256.75,-336.5 256.75,-342.5 250.75,-348.5 244.75,-348.5"/>
<text xml:space="preserve" text-anchor="middle" x="137.75" y="-325.45" font-family="Times New Roman,serif" font-size="14.00">LSP_CALL_HIERARCHY_HANDLER</text>
</g>
<!-- LSP_COMPLETION_HANDLER -->
<g id="node6" class="node">
<title>LSP_COMPLETION_HANDLER</title>
<path fill="none" stroke="black" d="M228.25,-420.5C228.25,-420.5 47.25,-420.5 47.25,-420.5 41.25,-420.5 35.25,-414.5 35.25,-408.5 35.25,-408.5 35.25,-396.5 35.25,-396.5 35.25,-390.5 41.25,-384.5 47.25,-384.5 47.25,-384.5 228.25,-384.5 228.25,-384.5 234.25,-384.5 240.25,-390.5 240.25,-396.5 240.25,-396.5 240.25,-408.5 240.25,-408.5 240.25,-414.5 234.25,-420.5 228.25,-420.5"/>
<text xml:space="preserve" text-anchor="middle" x="137.75" y="-397.45" font-family="Times New Roman,serif" font-size="14.00">LSP_COMPLETION_HANDLER</text>
</g>
<!-- LSP_CONTRACT_LENS_HANDLER -->
<g id="node7" class="node">
<title>LSP_CONTRACT_LENS_HANDLER</title>
<path fill="none" stroke="black" d="M241,-492.5C241,-492.5 34.5,-492.5 34.5,-492.5 28.5,-492.5 22.5,-486.5 22.5,-480.5 22.5,-480.5 22.5,-468.5 22.5,-468.5 22.5,-462.5 28.5,-456.5 34.5,-456.5 34.5,-456.5 241,-456.5 241,-456.5 247,-456.5 253,-462.5 253,-468.5 253,-468.5 253,-480.5 253,-480.5 253,-486.5 247,-492.5 241,-492.5"/>
<text xml:space="preserve" text-anchor="middle" x="137.75" y="-469.45" font-family="Times New Roman,serif" font-size="14.00">LSP_CONTRACT_LENS_HANDLER</text>
</g>
<!-- LSP_DOCUMENT_HIGHLIGHT_HANDLER -->
<g id="node8" class="node">
<title>LSP_DOCUMENT_HIGHLIGHT_HANDLER</title>
<path fill="none" stroke="black" d="M263.5,-564.5C263.5,-564.5 12,-564.5 12,-564.5 6,-564.5 0,-558.5 0,-552.5 0,-552.5 0,-540.5 0,-540.5 0,-534.5 6,-528.5 12,-528.5 12,-528.5 263.5,-528.5 263.5,-528.5 269.5,-528.5 275.5,-534.5 275.5,-540.5 275.5,-540.5 275.5,-552.5 275.5,-552.5 275.5,-558.5 269.5,-564.5 263.5,-564.5"/>
<text xml:space="preserve" text-anchor="middle" x="137.75" y="-541.45" font-family="Times New Roman,serif" font-size="14.00">LSP_DOCUMENT_HIGHLIGHT_HANDLER</text>
</g>
<!-- LSP_ECF_PARSER -->
<g id="node9" class="node">
<title>LSP_ECF_PARSER</title>
<path fill="none" stroke="black" d="M189.62,-636.5C189.62,-636.5 85.88,-636.5 85.88,-636.5 79.88,-636.5 73.88,-630.5 73.88,-624.5 73.88,-624.5 73.88,-612.5 73.88,-612.5 73.88,-606.5 79.88,-600.5 85.88,-600.5 85.88,-600.5 189.62,-600.5 189.62,-600.5 195.62,-600.5 201.62,-606.5 201.62,-612.5 201.62,-612.5 201.62,-624.5 201.62,-624.5 201.62,-630.5 195.62,-636.5 189.62,-636.5"/>
<text xml:space="preserve" text-anchor="middle" x="137.75" y="-613.45" font-family="Times New Roman,serif" font-size="14.00">LSP_ECF_PARSER</text>
</g>
<!-- LSP_HOVER_HANDLER -->
<g id="node10" class="node">
<title>LSP_HOVER_HANDLER</title>
<path fill="none" stroke="black" d="M207.62,-708.5C207.62,-708.5 67.88,-708.5 67.88,-708.5 61.88,-708.5 55.88,-702.5 55.88,-696.5 55.88,-696.5 55.88,-684.5 55.88,-684.5 55.88,-678.5 61.88,-672.5 67.88,-672.5 67.88,-672.5 207.62,-672.5 207.62,-672.5 213.62,-672.5 219.62,-678.5 219.62,-684.5 219.62,-684.5 219.62,-696.5 219.62,-696.5 219.62,-702.5 213.62,-708.5 207.62,-708.5"/>
<text xml:space="preserve" text-anchor="middle" x="137.75" y="-685.45" font-family="Times New Roman,serif" font-size="14.00">LSP_HOVER_HANDLER</text>
</g>
<!-- LSP_IMPLEMENTATION_HANDLER -->
<g id="node11" class="node">
<title>LSP_IMPLEMENTATION_HANDLER</title>
<path fill="none" stroke="black" d="M244.38,-780.5C244.38,-780.5 31.12,-780.5 31.12,-780.5 25.12,-780.5 19.12,-774.5 19.12,-768.5 19.12,-768.5 19.12,-756.5 19.12,-756.5 19.12,-750.5 25.12,-744.5 31.12,-744.5 31.12,-744.5 244.38,-744.5 244.38,-744.5 250.38,-744.5 256.38,-750.5 256.38,-756.5 256.38,-756.5 256.38,-768.5 256.38,-768.5 256.38,-774.5 250.38,-780.5 244.38,-780.5"/>
<text xml:space="preserve" text-anchor="middle" x="137.75" y="-757.45" font-family="Times New Roman,serif" font-size="14.00">LSP_IMPLEMENTATION_HANDLER</text>
</g>
<!-- LSP_LOGGER -->
<g id="node12" class="node">
<title>LSP_LOGGER</title>
<path fill="none" stroke="black" d="M176.12,-852.5C176.12,-852.5 99.38,-852.5 99.38,-852.5 93.38,-852.5 87.38,-846.5 87.38,-840.5 87.38,-840.5 87.38,-828.5 87.38,-828.5 87.38,-822.5 93.38,-816.5 99.38,-816.5 99.38,-816.5 176.12,-816.5 176.12,-816.5 182.12,-816.5 188.12,-822.5 188.12,-828.5 188.12,-828.5 188.12,-840.5 188.12,-840.5 188.12,-846.5 182.12,-852.5 176.12,-852.5"/>
<text xml:space="preserve" text-anchor="middle" x="137.75" y="-829.45" font-family="Times New Roman,serif" font-size="14.00">LSP_LOGGER</text>
</g>
<!-- LSP_MESSAGE -->
<g id="node13" class="node">
<title>LSP_MESSAGE</title>
<path fill="none" stroke="black" d="M180.62,-924.5C180.62,-924.5 94.88,-924.5 94.88,-924.5 88.88,-924.5 82.88,-918.5 82.88,-912.5 82.88,-912.5 82.88,-900.5 82.88,-900.5 82.88,-894.5 88.88,-888.5 94.88,-888.5 94.88,-888.5 180.62,-888.5 180.62,-888.5 186.62,-888.5 192.62,-894.5 192.62,-900.5 192.62,-900.5 192.62,-912.5 192.62,-912.5 192.62,-918.5 186.62,-924.5 180.62,-924.5"/>
<text xml:space="preserve" text-anchor="middle" x="137.75" y="-901.45" font-family="Times New Roman,serif" font-size="14.00">LSP_MESSAGE</text>
</g>
<!-- LSP_NAVIGATION_HANDLER -->
<g id="node14" class="node">
<title>LSP_NAVIGATION_HANDLER</title>
<path fill="none" stroke="black" d="M225.62,-996.5C225.62,-996.5 49.88,-996.5 49.88,-996.5 43.88,-996.5 37.88,-990.5 37.88,-984.5 37.88,-984.5 37.88,-972.5 37.88,-972.5 37.88,-966.5 43.88,-960.5 49.88,-960.5 49.88,-960.5 225.62,-960.5 225.62,-960.5 231.62,-960.5 237.62,-966.5 237.62,-972.5 237.62,-972.5 237.62,-984.5 237.62,-984.5 237.62,-990.5 231.62,-996.5 225.62,-996.5"/>
<text xml:space="preserve" text-anchor="middle" x="137.75" y="-973.45" font-family="Times New Roman,serif" font-size="14.00">LSP_NAVIGATION_HANDLER</text>
</g>
<!-- LSP_RENAME_HANDLER -->
<g id="node15" class="node">
<title>LSP_RENAME_HANDLER</title>
<path fill="none" stroke="black" d="M213.25,-1068.5C213.25,-1068.5 62.25,-1068.5 62.25,-1068.5 56.25,-1068.5 50.25,-1062.5 50.25,-1056.5 50.25,-1056.5 50.25,-1044.5 50.25,-1044.5 50.25,-1038.5 56.25,-1032.5 62.25,-1032.5 62.25,-1032.5 213.25,-1032.5 213.25,-1032.5 219.25,-1032.5 225.25,-1038.5 225.25,-1044.5 225.25,-1044.5 225.25,-1056.5 225.25,-1056.5 225.25,-1062.5 219.25,-1068.5 213.25,-1068.5"/>
<text xml:space="preserve" text-anchor="middle" x="137.75" y="-1045.45" font-family="Times New Roman,serif" font-size="14.00">LSP_RENAME_HANDLER</text>
</g>
<!-- LSP_SEMANTIC_TOKENS_HANDLER -->
<g id="node16" class="node">
<title>LSP_SEMANTIC_TOKENS_HANDLER</title>
<path fill="none" stroke="black" d="M249.25,-1140.5C249.25,-1140.5 26.25,-1140.5 26.25,-1140.5 20.25,-1140.5 14.25,-1134.5 14.25,-1128.5 14.25,-1128.5 14.25,-1116.5 14.25,-1116.5 14.25,-1110.5 20.25,-1104.5 26.25,-1104.5 26.25,-1104.5 249.25,-1104.5 249.25,-1104.5 255.25,-1104.5 261.25,-1110.5 261.25,-1116.5 261.25,-1116.5 261.25,-1128.5 261.25,-1128.5 261.25,-1134.5 255.25,-1140.5 249.25,-1140.5"/>
<text xml:space="preserve" text-anchor="middle" x="137.75" y="-1117.45" font-family="Times New Roman,serif" font-size="14.00">LSP_SEMANTIC_TOKENS_HANDLER</text>
</g>
<!-- LSP_SERVER -->
<g id="node17" class="node">
<title>LSP_SERVER</title>
<path fill="none" stroke="black" d="M174.25,-1212.5C174.25,-1212.5 101.25,-1212.5 101.25,-1212.5 95.25,-1212.5 89.25,-1206.5 89.25,-1200.5 89.25,-1200.5 89.25,-1188.5 89.25,-1188.5 89.25,-1182.5 95.25,-1176.5 101.25,-1176.5 101.25,-1176.5 174.25,-1176.5 174.25,-1176.5 180.25,-1176.5 186.25,-1182.5 186.25,-1188.5 186.25,-1188.5 186.25,-1200.5 186.25,-1200.5 186.25,-1206.5 180.25,-1212.5 174.25,-1212.5"/>
<text xml:space="preserve" text-anchor="middle" x="137.75" y="-1189.45" font-family="Times New Roman,serif" font-size="14.00">LSP_SERVER</text>
</g>
<!-- LSP_SIGNATURE_HELP_HANDLER -->
<g id="node18" class="node">
<title>LSP_SIGNATURE_HELP_HANDLER</title>
<path fill="none" stroke="black" d="M242.12,-1284.5C242.12,-1284.5 33.38,-1284.5 33.38,-1284.5 27.38,-1284.5 21.38,-1278.5 21.38,-1272.5 21.38,-1272.5 21.38,-1260.5 21.38,-1260.5 21.38,-1254.5 27.38,-1248.5 33.38,-1248.5 33.38,-1248.5 242.12,-1248.5 242.12,-1248.5 248.12,-1248.5 254.12,-1254.5 254.12,-1260.5 254.12,-1260.5 254.12,-1272.5 254.12,-1272.5 254.12,-1278.5 248.12,-1284.5 242.12,-1284.5"/>
<text xml:space="preserve" text-anchor="middle" x="137.75" y="-1261.45" font-family="Times New Roman,serif" font-size="14.00">LSP_SIGNATURE_HELP_HANDLER</text>
</g>
<!-- LSP_SYMBOL_DATABASE -->
<g id="node19" class="node">
<title>LSP_SYMBOL_DATABASE</title>
<path fill="none" stroke="black" d="M215.5,-1356.5C215.5,-1356.5 60,-1356.5 60,-1356.5 54,-1356.5 48,-1350.5 48,-1344.5 48,-1344.5 48,-1332.5 48,-1332.5 48,-1326.5 54,-1320.5 60,-1320.5 60,-1320.5 215.5,-1320.5 215.5,-1320.5 221.5,-1320.5 227.5,-1326.5 227.5,-1332.5 227.5,-1332.5 227.5,-1344.5 227.5,-1344.5 227.5,-1350.5 221.5,-1356.5 215.5,-1356.5"/>
<text xml:space="preserve" text-anchor="middle" x="137.75" y="-1333.45" font-family="Times New Roman,serif" font-size="14.00">LSP_SYMBOL_DATABASE</text>
</g>
<!-- LSP_TEST_RUNNER_HANDLER -->
<g id="node20" class="node">
<title>LSP_TEST_RUNNER_HANDLER</title>
<path fill="none" stroke="black" d="M231.62,-1428.5C231.62,-1428.5 43.88,-1428.5 43.88,-1428.5 37.88,-1428.5 31.88,-1422.5 31.88,-1416.5 31.88,-1416.5 31.88,-1404.5 31.88,-1404.5 31.88,-1398.5 37.88,-1392.5 43.88,-1392.5 43.88,-1392.5 231.62,-1392.5 231.62,-1392.5 237.62,-1392.5 243.62,-1398.5 243.62,-1404.5 243.62,-1404.5 243.62,-1416.5 243.62,-1416.5 243.62,-1422.5 237.62,-1428.5 231.62,-1428.5"/>
<text xml:space="preserve" text-anchor="middle" x="137.75" y="-1405.45" font-family="Times New Roman,serif" font-size="14.00">LSP_TEST_RUNNER_HANDLER</text>
</g>
<!-- LSP_TYPE_HIERARCHY_HANDLER -->
<g id="node21" class="node">
<title>LSP_TYPE_HIERARCHY_HANDLER</title>
<path fill="none" stroke="black" d="M244,-1500.5C244,-1500.5 31.5,-1500.5 31.5,-1500.5 25.5,-1500.5 19.5,-1494.5 19.5,-1488.5 19.5,-1488.5 19.5,-1476.5 19.5,-1476.5 19.5,-1470.5 25.5,-1464.5 31.5,-1464.5 31.5,-1464.5 244,-1464.5 244,-1464.5 250,-1464.5 256,-1470.5 256,-1476.5 256,-1476.5 256,-1488.5 256,-1488.5 256,-1494.5 250,-1500.5 244,-1500.5"/>
<text xml:space="preserve" text-anchor="middle" x="137.75" y="-1477.45" font-family="Times New Roman,serif" font-size="14.00">LSP_TYPE_HIERARCHY_HANDLER</text>
</g>
<!-- LIB_TESTS -->
<g id="node22" class="node">
<title>LIB_TESTS</title>
<path fill="none" stroke="black" d="M167.88,-1572.5C167.88,-1572.5 107.62,-1572.5 107.62,-1572.5 101.62,-1572.5 95.62,-1566.5 95.62,-1560.5 95.62,-1560.5 95.62,-1548.5 95.62,-1548.5 95.62,-1542.5 101.62,-1536.5 107.62,-1536.5 107.62,-1536.5 167.88,-1536.5 167.88,-1536.5 173.88,-1536.5 179.88,-1542.5 179.88,-1548.5 179.88,-1548.5 179.88,-1560.5 179.88,-1560.5 179.88,-1566.5 173.88,-1572.5 167.88,-1572.5"/>
<text xml:space="preserve" text-anchor="middle" x="137.75" y="-1549.45" font-family="Times New Roman,serif" font-size="14.00">LIB_TESTS</text>
</g>
<!-- TEST_SET_BASE -->
<g id="node23" class="node">
<title>TEST_SET_BASE</title>
<path fill="none" stroke="black" d="M491.75,-1572.5C491.75,-1572.5 395.5,-1572.5 395.5,-1572.5 389.5,-1572.5 383.5,-1566.5 383.5,-1560.5 383.5,-1560.5 383.5,-1548.5 383.5,-1548.5 383.5,-1542.5 389.5,-1536.5 395.5,-1536.5 395.5,-1536.5 491.75,-1536.5 491.75,-1536.5 497.75,-1536.5 503.75,-1542.5 503.75,-1548.5 503.75,-1548.5 503.75,-1560.5 503.75,-1560.5 503.75,-1566.5 497.75,-1572.5 491.75,-1572.5"/>
<text xml:space="preserve" text-anchor="middle" x="443.62" y="-1549.45" font-family="Times New Roman,serif" font-size="14.00">TEST_SET_BASE</text>
</g>
<!-- LIB_TESTS&#45;&gt;TEST_SET_BASE -->
<g id="edge1" class="edge">
<title>LIB_TESTS&#45;&gt;TEST_SET_BASE</title>
<path fill="none" stroke="black" d="M180.28,-1554.5C180.28,-1554.5 371.51,-1554.5 371.51,-1554.5"/>
<polygon fill="none" stroke="black" points="371.51,-1558 381.51,-1554.5 371.51,-1551 371.51,-1558"/>
</g>
<!-- LSP_TEST_SUITE -->
<g id="node24" class="node">
<title>LSP_TEST_SUITE</title>
<path fill="none" stroke="black" d="M187.38,-1644.5C187.38,-1644.5 88.12,-1644.5 88.12,-1644.5 82.12,-1644.5 76.12,-1638.5 76.12,-1632.5 76.12,-1632.5 76.12,-1620.5 76.12,-1620.5 76.12,-1614.5 82.12,-1608.5 88.12,-1608.5 88.12,-1608.5 187.38,-1608.5 187.38,-1608.5 193.38,-1608.5 199.38,-1614.5 199.38,-1620.5 199.38,-1620.5 199.38,-1632.5 199.38,-1632.5 199.38,-1638.5 193.38,-1644.5 187.38,-1644.5"/>
<text xml:space="preserve" text-anchor="middle" x="137.75" y="-1621.45" font-family="Times New Roman,serif" font-size="14.00">LSP_TEST_SUITE</text>
</g>
<!-- EQA_TEST_SET -->
<g id="node25" class="node">
<title>EQA_TEST_SET</title>
<path fill="none" stroke="black" d="M488.38,-1644.5C488.38,-1644.5 398.88,-1644.5 398.88,-1644.5 392.88,-1644.5 386.88,-1638.5 386.88,-1632.5 386.88,-1632.5 386.88,-1620.5 386.88,-1620.5 386.88,-1614.5 392.88,-1608.5 398.88,-1608.5 398.88,-1608.5 488.38,-1608.5 488.38,-1608.5 494.38,-1608.5 500.38,-1614.5 500.38,-1620.5 500.38,-1620.5 500.38,-1632.5 500.38,-1632.5 500.38,-1638.5 494.38,-1644.5 488.38,-1644.5"/>
<text xml:space="preserve" text-anchor="middle" x="443.62" y="-1621.45" font-family="Times New Roman,serif" font-size="14.00">EQA_TEST_SET</text>
</g>
<!-- LSP_TEST_SUITE&#45;&gt;EQA_TEST_SET -->
<g id="edge2" class="edge">
<title>LSP_TEST_SUITE&#45;&gt;EQA_TEST_SET</title>
<path fill="none" stroke="black" d="M199.65,-1626.5C199.65,-1626.5 374.95,-1626.5 374.95,-1626.5"/>
<polygon fill="none" stroke="black" points="374.95,-1630 384.95,-1626.5 374.95,-1623 374.95,-1630"/>
</g>
<!-- TEST_APP -->
<g id="node26" class="node">
<title>TEST_APP</title>
<path fill="none" stroke="black" d="M165.62,-1716.5C165.62,-1716.5 109.88,-1716.5 109.88,-1716.5 103.88,-1716.5 97.88,-1710.5 97.88,-1704.5 97.88,-1704.5 97.88,-1692.5 97.88,-1692.5 97.88,-1686.5 103.88,-1680.5 109.88,-1680.5 109.88,-1680.5 165.62,-1680.5 165.62,-1680.5 171.62,-1680.5 177.62,-1686.5 177.62,-1692.5 177.62,-1692.5 177.62,-1704.5 177.62,-1704.5 177.62,-1710.5 171.62,-1716.5 165.62,-1716.5"/>
<text xml:space="preserve" text-anchor="middle" x="137.75" y="-1693.45" font-family="Times New Roman,serif" font-size="14.00">TEST_APP</text>
</g>
</g>
</svg>
