<?xml version="1.0" encoding="UTF-8" standalone="no"?>
<!DOCTYPE svg PUBLIC "-//W3C//DTD SVG 1.1//EN"
 "http://www.w3.org/Graphics/SVG/1.1/DTD/svg11.dtd">
<!-- Generated by graphviz version 14.1.1 (20251213.1925)
 -->
<!-- Title: Dependencies Pages: 1 -->
<svg width="355pt" height="861pt"
 viewBox="0.00 0.00 355.00 861.00" xmlns="http://www.w3.org/2000/svg" xmlns:xlink="http://www.w3.org/1999/xlink">
<g id="graph0" class="graph" transform="scale(1 1) rotate(0) translate(4 856.5)">
<title>Dependencies</title>
<polygon fill="white" stroke="none" points="-4,4 -4,-856.5 351,-856.5 351,4 -4,4"/>
<text xml:space="preserve" text-anchor="middle" x="173.5" y="-7.2" font-family="Times New Roman,serif" font-size="14.00">simple_lsp &#45; Dependencies</text>
<!-- simple_lsp -->
<g id="node1" class="node">
<title>simple_lsp</title>
<polygon fill="lightblue" stroke="black" points="75.25,-456.5 0,-456.5 0,-420.5 75.25,-420.5 75.25,-456.5"/>
<text xml:space="preserve" text-anchor="middle" x="37.62" y="-433.45" font-family="Times New Roman,serif" font-size="14.00">simple_lsp</text>
</g>
<!-- simple_datetime -->
<g id="node2" class="node">
<title>simple_datetime</title>
<polygon fill="lightblue" stroke="black" points="336.5,-852.5 229.75,-852.5 229.75,-816.5 336.5,-816.5 336.5,-852.5"/>
<text xml:space="preserve" text-anchor="middle" x="283.12" y="-829.45" font-family="Times New Roman,serif" font-size="14.00">simple_datetime</text>
</g>
<!-- simple_lsp&#45;&gt;simple_datetime -->
<g id="edge1" class="edge">
<title>simple_lsp&#45;&gt;simple_datetime</title>
<path fill="none" stroke="black" stroke-dasharray="5,2" d="M13,-456.81C13,-534.69 13,-834.5 13,-834.5 13,-834.5 217.92,-834.5 217.92,-834.5"/>
<polygon fill="black" stroke="black" points="217.92,-838 227.92,-834.5 217.92,-831 217.92,-838"/>
</g>
<!-- simple_json -->
<g id="node3" class="node">
<title>simple_json</title>
<polygon fill="lightblue" stroke="black" points="324.12,-780.5 242.12,-780.5 242.12,-744.5 324.12,-744.5 324.12,-780.5"/>
<text xml:space="preserve" text-anchor="middle" x="283.12" y="-757.45" font-family="Times New Roman,serif" font-size="14.00">simple_json</text>
</g>
<!-- simple_lsp&#45;&gt;simple_json -->
<g id="edge2" class="edge">
<title>simple_lsp&#45;&gt;simple_json</title>
<path fill="none" stroke="black" stroke-dasharray="5,2" d="M25,-456.85C25,-525.39 25,-762.5 25,-762.5 25,-762.5 230.14,-762.5 230.14,-762.5"/>
<polygon fill="black" stroke="black" points="230.14,-766 240.14,-762.5 230.14,-759 230.14,-766"/>
</g>
<!-- simple_sql -->
<g id="node4" class="node">
<title>simple_sql</title>
<polygon fill="lightblue" stroke="black" points="320.75,-708.5 245.5,-708.5 245.5,-672.5 320.75,-672.5 320.75,-708.5"/>
<text xml:space="preserve" text-anchor="middle" x="283.12" y="-685.45" font-family="Times New Roman,serif" font-size="14.00">simple_sql</text>
</g>
<!-- simple_lsp&#45;&gt;simple_sql -->
<g id="edge3" class="edge">
<title>simple_lsp&#45;&gt;simple_sql</title>
<path fill="none" stroke="black" stroke-dasharray="5,2" d="M38,-456.62C38,-514.4 38,-690.5 38,-690.5 38,-690.5 233.58,-690.5 233.58,-690.5"/>
<polygon fill="black" stroke="black" points="233.58,-694 243.58,-690.5 233.58,-687 233.58,-694"/>
</g>
<!-- simple_process -->
<g id="node5" class="node">
<title>simple_process</title>
<polygon fill="lightblue" stroke="black" points="333.12,-636.5 233.12,-636.5 233.12,-600.5 333.12,-600.5 333.12,-636.5"/>
<text xml:space="preserve" text-anchor="middle" x="283.12" y="-613.45" font-family="Times New Roman,serif" font-size="14.00">simple_process</text>
</g>
<!-- simple_lsp&#45;&gt;simple_process -->
<g id="edge4" class="edge">
<title>simple_lsp&#45;&gt;simple_process</title>
<path fill="none" stroke="black" stroke-dasharray="5,2" d="M50,-456.75C50,-502.51 50,-618.5 50,-618.5 50,-618.5 221.31,-618.5 221.31,-618.5"/>
<polygon fill="black" stroke="black" points="221.31,-622 231.31,-618.5 221.31,-615 221.31,-622"/>
</g>
<!-- simple_file -->
<g id="node6" class="node">
<title>simple_file</title>
<polygon fill="lightblue" stroke="black" points="321.88,-564.5 244.38,-564.5 244.38,-528.5 321.88,-528.5 321.88,-564.5"/>
<text xml:space="preserve" text-anchor="middle" x="283.12" y="-541.45" font-family="Times New Roman,serif" font-size="14.00">simple_file</text>
</g>
<!-- simple_lsp&#45;&gt;simple_file -->
<g id="edge5" class="edge">
<title>simple_lsp&#45;&gt;simple_file</title>
<path fill="none" stroke="black" stroke-dasharray="5,2" d="M63,-456.82C63,-487.63 63,-546.5 63,-546.5 63,-546.5 232.51,-546.5 232.51,-546.5"/>
<polygon fill="black" stroke="black" points="232.51,-550 242.51,-546.5 232.51,-543 232.51,-550"/>
</g>
<!-- simple_eiffel_parser -->
<g id="node7" class="node">
<title>simple_eiffel_parser</title>
<polygon fill="lightblue" stroke="black" points="347,-492.5 219.25,-492.5 219.25,-456.5 347,-456.5 347,-492.5"/>
<text xml:space="preserve" text-anchor="middle" x="283.12" y="-469.45" font-family="Times New Roman,serif" font-size="14.00">simple_eiffel_parser</text>
</g>
<!-- simple_lsp&#45;&gt;simple_eiffel_parser -->
<g id="edge6" class="edge">
<title>simple_lsp&#45;&gt;simple_eiffel_parser</title>
<path fill="none" stroke="black" stroke-dasharray="5,2" d="M75.49,-438.5C130.76,-438.5 227,-438.5 227,-438.5 227,-438.5 227,-444.56 227,-444.56"/>
<polygon fill="black" stroke="black" points="223.5,-444.56 227,-454.56 230.5,-444.56 223.5,-444.56"/>
</g>
<!-- simple_xml -->
<g id="node8" class="node">
<title>simple_xml</title>
<polygon fill="lightblue" stroke="black" points="323.75,-420.5 242.5,-420.5 242.5,-384.5 323.75,-384.5 323.75,-420.5"/>
<text xml:space="preserve" text-anchor="middle" x="283.12" y="-397.45" font-family="Times New Roman,serif" font-size="14.00">simple_xml</text>
</g>
<!-- simple_lsp&#45;&gt;simple_xml -->
<g id="edge7" class="edge">
<title>simple_lsp&#45;&gt;simple_xml</title>
<path fill="none" stroke="black" stroke-dasharray="5,2" d="M64,-420.08C64,-411.22 64,-402.5 64,-402.5 64,-402.5 230.65,-402.5 230.65,-402.5"/>
<polygon fill="black" stroke="black" points="230.65,-406 240.65,-402.5 230.65,-399 230.65,-406"/>
</g>
<!-- simple_toml -->
<g id="node9" class="node">
<title>simple_toml</title>
<polygon fill="lightblue" stroke="black" points="325.62,-348.5 240.62,-348.5 240.62,-312.5 325.62,-312.5 325.62,-348.5"/>
<text xml:space="preserve" text-anchor="middle" x="283.12" y="-325.45" font-family="Times New Roman,serif" font-size="14.00">simple_toml</text>
</g>
<!-- simple_lsp&#45;&gt;simple_toml -->
<g id="edge8" class="edge">
<title>simple_lsp&#45;&gt;simple_toml</title>
<path fill="none" stroke="black" stroke-dasharray="5,2" d="M54,-420.18C54,-389.37 54,-330.5 54,-330.5 54,-330.5 228.78,-330.5 228.78,-330.5"/>
<polygon fill="black" stroke="black" points="228.78,-334 238.78,-330.5 228.78,-327 228.78,-334"/>
</g>
<!-- simple_ucf -->
<g id="node10" class="node">
<title>simple_ucf</title>
<polygon fill="lightblue" stroke="black" points="321.5,-276.5 244.75,-276.5 244.75,-240.5 321.5,-240.5 321.5,-276.5"/>
<text xml:space="preserve" text-anchor="middle" x="283.12" y="-253.45" font-family="Times New Roman,serif" font-size="14.00">simple_ucf</text>
</g>
<!-- simple_lsp&#45;&gt;simple_ucf -->
<g id="edge9" class="edge">
<title>simple_lsp&#45;&gt;simple_ucf</title>
<path fill="none" stroke="black" stroke-dasharray="5,2" d="M43,-420.25C43,-374.49 43,-258.5 43,-258.5 43,-258.5 232.76,-258.5 232.76,-258.5"/>
<polygon fill="black" stroke="black" points="232.76,-262 242.76,-258.5 232.76,-255 232.76,-262"/>
</g>
<!-- simple_testing -->
<g id="node11" class="node">
<title>simple_testing</title>
<polygon fill="lightblue" stroke="black" points="330.88,-204.5 235.38,-204.5 235.38,-168.5 330.88,-168.5 330.88,-204.5"/>
<text xml:space="preserve" text-anchor="middle" x="283.12" y="-181.45" font-family="Times New Roman,serif" font-size="14.00">simple_testing</text>
</g>
<!-- simple_lsp&#45;&gt;simple_testing -->
<g id="edge10" class="edge">
<title>simple_lsp&#45;&gt;simple_testing</title>
<path fill="none" stroke="black" stroke-dasharray="5,2" d="M32,-420.38C32,-362.6 32,-186.5 32,-186.5 32,-186.5 223.49,-186.5 223.49,-186.5"/>
<polygon fill="black" stroke="black" points="223.49,-190 233.49,-186.5 223.49,-183 223.49,-190"/>
</g>
<!-- base -->
<g id="node12" class="node">
<title>base</title>
<polygon fill="lightgray" stroke="black" points="310.12,-132.5 256.12,-132.5 256.12,-96.5 310.12,-96.5 310.12,-132.5"/>
<text xml:space="preserve" text-anchor="middle" x="283.12" y="-109.45" font-family="Times New Roman,serif" font-size="14.00">base</text>
</g>
<!-- simple_lsp&#45;&gt;base -->
<g id="edge11" class="edge">
<title>simple_lsp&#45;&gt;base</title>
<path fill="none" stroke="black" stroke-dasharray="5,2" d="M21,-420.15C21,-351.61 21,-114.5 21,-114.5 21,-114.5 244.55,-114.5 244.55,-114.5"/>
<polygon fill="black" stroke="black" points="244.55,-118 254.55,-114.5 244.55,-111 244.55,-118"/>
</g>
<!-- testing -->
<g id="node13" class="node">
<title>testing</title>
<polygon fill="lightgray" stroke="black" points="310.12,-60.5 256.12,-60.5 256.12,-24.5 310.12,-24.5 310.12,-60.5"/>
<text xml:space="preserve" text-anchor="middle" x="283.12" y="-37.45" font-family="Times New Roman,serif" font-size="14.00">testing</text>
</g>
<!-- simple_lsp&#45;&gt;testing -->
<g id="edge12" class="edge">
<title>simple_lsp&#45;&gt;testing</title>
<path fill="none" stroke="black" stroke-dasharray="5,2" d="M11,-420.19C11,-342.31 11,-42.5 11,-42.5 11,-42.5 244.27,-42.5 244.27,-42.5"/>
<polygon fill="black" stroke="black" points="244.27,-46 254.27,-42.5 244.27,-39 244.27,-46"/>
</g>
</g>
</svg>
